<?xml version="1.0" encoding="UTF-8"?>
<svg width="500" height="350" version="1.1" viewBox="0 0 500 350" xmlns="http://www.w3.org/2000/svg" xmlns:cc="http://creativecommons.org/ns#" xmlns:dc="http://purl.org/dc/elements/1.1/" xmlns:rdf="http://www.w3.org/1999/02/22-rdf-syntax-ns#" xmlns:xlink="http://www.w3.org/1999/xlink">
 <metadata>
  <rdf:RDF>
   <cc:Work rdf:about="">
    <dc:format>image/svg+xml</dc:format>
    <dc:type rdf:resource="http://purl.org/dc/dcmitype/StillImage"/>
    <dc:title/>
   </cc:Work>
  </rdf:RDF>
 </metadata>
 <path id="motionPath" d="m202.4 58.3c-13.8 0.1-33.3 0.4-44.8 9.2-14 10.7-26.2 29.2-31.9 45.6-7.8 22.2-13.5 48-3.5 70.2 12.8 28.2 47.1 43.6 68.8 63.6 19.6 18.1 43.4 26.1 69.5 29.4 21.7 2.7 43.6 3.3 65.4 4.7 19.4 1.3 33.9-7.7 51.2-15.3 24.4-10.7 38.2-44 40.9-68.9 1.8-16.7 3.4-34.9-10.3-46.5-9.5-8-22.6-8.1-33.2-14.1-13.7-7.7-27.4-17.2-39.7-26.8-5.4-4.2-10.4-8.8-15.8-12.9-4.5-3.5-8.1-8.3-13.2-11-6.2-3.3-14.3-5.4-20.9-8.2-5-2.1-9.5-5.2-14.3-7.6-6.5-3.3-12.1-7.4-19.3-8.9-6-1.2-12.4-1.3-18.6-1.5-10.2-0.3-20.2-1.5-30.3-1" fill="none" stroke="#000" stroke-miterlimit="10"/>
 <g id="car" transform="translate(-234.4 -182.8)">
  <path d="m234.4 182.8c-3.5 0-6.4 2.9-6.4 6.4s2.9 6.4 6.4 6.4 6.4-2.9 6.4-6.4c0-3.6-2.8-6.4-6.4-6.4z"/>
  <circle cx="234.4" cy="189.2" r="2.8"/>
  <path d="m263 182.8c-3.5 0-6.4 2.9-6.4 6.4s2.9 6.4 6.4 6.4 6.4-2.9 6.4-6.4c0-3.6-2.8-6.4-6.4-6.4z"/>
  <circle cx="263" cy="189.2" r="2.8"/>
  <path d="m275 171.4c-2.8-0.7-5.2-3-6.3-5.1l-3.9-7.4c-1.1-2.1-3.9-3.8-6.3-3.8h-22.6c-2.4 0-5 1.8-5.7 4.1l-2.4 7c-0.2 0.9-1.8 5.5-5 5.5-2.4 0-5 3.1-5 5.5v8.2c0 2.4 1.9 4.3 4.3 4.3h4.5v-0.5c0-4.3 3.5-7.8 7.8-7.8s7.8 3.5 7.8 7.8v0.5h13.1v-0.5c0-4.3 3.5-7.8 7.8-7.8s7.8 3.5 7.8 7.8v0.5h8.1c2.4 0 4.3-1.9 4.3-4.3v-6.5c-0.1-6.9-6-6.9-8.3-7.5z"/>
  <path d="m241.8 170.3h-12.5c0.7-1.1 1.1-2.2 1.2-2.6l2-5.9c0.6-1.9 2.8-3.5 4.8-3.5h4.5v12z"/>
  <path d="m246.1 170.3v-12h10.4c2 0 4.4 1.5 5.3 3.3l3.3 6.3c0.4 0.8 1.1 1.7 2 2.4h-21z"/>
 </g>
 <animateMotion rotate="auto" fill="freeze" begin="0s" dur="3s" repeatCount="indefinite" xlink:href="#car">
  <mpath xlink:href="#motionPath"/>
 </animateMotion>
</svg>
